<svg xmlns="http://www.w3.org/2000/svg" viewBox="0 0 100 100" width="100" height="100">
  <rect width="100" height="100" rx="18" fill="#1a3a6b"/>
  <!-- QR cantos -->
  <rect x="12" y="12" width="30" height="30" rx="4" fill="none" stroke="#fff" stroke-width="5"/>
  <rect x="18" y="18" width="18" height="18" rx="2" fill="#4fc3f7"/>
  <rect x="58" y="12" width="30" height="30" rx="4" fill="none" stroke="#fff" stroke-width="5"/>
  <rect x="64" y="18" width="18" height="18" rx="2" fill="#4fc3f7"/>
  <rect x="12" y="58" width="30" height="30" rx="4" fill="none" stroke="#fff" stroke-width="5"/>
  <rect x="18" y="64" width="18" height="18" rx="2" fill="#4fc3f7"/>
  <!-- Módulos centrais -->
  <rect x="48" y="48" width="8" height="8" rx="1" fill="#fff"/>
  <rect x="60" y="48" width="8" height="8" rx="1" fill="#fff"/>
  <rect x="72" y="48" width="8" height="8" rx="1" fill="#4fc3f7"/>
  <rect x="48" y="60" width="8" height="8" rx="1" fill="#4fc3f7"/>
  <rect x="60" y="60" width="8" height="8" rx="1" fill="#fff"/>
  <rect x="72" y="60" width="8" height="8" rx="1" fill="#fff"/>
  <rect x="48" y="72" width="8" height="8" rx="1" fill="#fff"/>
  <rect x="60" y="72" width="8" height="8" rx="1" fill="#4fc3f7"/>
  <rect x="72" y="72" width="8" height="8" rx="1" fill="#fff"/>
</svg>
